<svg xmlns="http://www.w3.org/2000/svg" viewBox="0 0 750 500"><g id="freepik--Floor--inject-5"><path d="M722.94,389c0,.14-158.76.26-354.56.26S13.8,389.15,13.8,389s158.72-.26,354.58-.26S722.94,388.86,722.94,389Z" style="fill:#263238"></path><path d="M722.94,378.25c0,.15-158.76.26-354.56.26S13.8,378.4,13.8,378.25,172.52,378,368.38,378,722.94,378.11,722.94,378.25Z" style="fill:#263238"></path></g><g id="freepik--Sun--inject-5"><circle cx="139.03" cy="123.12" r="36.04" style="fill:#407BFF"></circle><g style="opacity:0.9"><circle cx="139.03" cy="123.12" r="36.04" style="fill:#fff"></circle></g><circle cx="139.03" cy="123.12" r="32.14" style="fill:#407BFF"></circle><g style="opacity:0.6000000000000001"><circle cx="139.03" cy="123.12" r="32.14" style="fill:#fff"></circle></g><circle cx="139.03" cy="123.12" r="26.75" transform="translate(-0.15 246.07) rotate(-82.98)" style="fill:#407BFF"></circle><g style="opacity:0.30000000000000004"><circle cx="139.03" cy="123.12" r="26.75" transform="translate(-0.15 246.07) rotate(-82.98)" style="fill:#fff"></circle></g><circle cx="139.03" cy="123.12" r="21.42" transform="translate(-4.77 240.64) rotate(-80.78)" style="fill:#407BFF"></circle></g><g id="freepik--Birds--inject-5"><path d="M565.88,123.91s-.81-.28-2.31-.61a18.33,18.33,0,0,0-6.44-.25,17.28,17.28,0,0,0-8.68,3.75,17.93,17.93,0,0,0-6.13,9.73l0,.1-.17.7-.27-.66a19.36,19.36,0,0,0-7.34-8.86,18.77,18.77,0,0,0-9-3,19.64,19.64,0,0,0-6.4.59c-1.48.39-2.26.73-2.28.69a2.89,2.89,0,0,1,.56-.27,13.14,13.14,0,0,1,1.67-.6,19,19,0,0,1,6.47-.74,18.81,18.81,0,0,1,9.17,3,19.58,19.58,0,0,1,7.54,9l-.44,0,0-.11a18.31,18.31,0,0,1,6.31-10,17.52,17.52,0,0,1,8.91-3.74,17.94,17.94,0,0,1,6.53.4,13.21,13.21,0,0,1,1.69.54A3.42,3.42,0,0,1,565.88,123.91Z" style="fill:#263238"></path><path d="M613.85,147.55s-.45-.13-1.28-.3a10.51,10.51,0,0,0-3.52-.1,9.57,9.57,0,0,0-4.72,2.06,9.81,9.81,0,0,0-3.33,5.3l0,.06-.18.7-.26-.66a10.58,10.58,0,0,0-4-4.83,10.24,10.24,0,0,0-4.88-1.65,10.94,10.94,0,0,0-3.51.28c-.81.2-1.25.38-1.26.34s.09-.07.3-.17a6.76,6.76,0,0,1,.91-.34,10,10,0,0,1,3.58-.44,10.33,10.33,0,0,1,5.09,1.61,10.81,10.81,0,0,1,4.19,5l-.45,0,0-.06a10.18,10.18,0,0,1,3.51-5.53,9.75,9.75,0,0,1,8.57-1.8,7.08,7.08,0,0,1,.93.31C613.75,147.48,613.86,147.53,613.85,147.55Z" style="fill:#263238"></path><path d="M593,94.47a17.59,17.59,0,0,1-1.24,1.4,30.13,30.13,0,0,0-3,4.09,29.66,29.66,0,0,0-4.49,15.88v.2l-.46,0a26.73,26.73,0,0,0-7.33-14.58,27.3,27.3,0,0,0-3.83-3.25c-1-.67-1.55-1-1.53-1s.16.06.44.21.69.36,1.19.69a24.22,24.22,0,0,1,4,3.17,26.36,26.36,0,0,1,4.56,6,26,26,0,0,1,3,8.74l-.46,0v-.2a29.13,29.13,0,0,1,4.68-16.07,27,27,0,0,1,3.16-4c.41-.45.77-.75,1-1A2.45,2.45,0,0,1,593,94.47Z" style="fill:#263238"></path></g><g id="freepik--speech-bubble--inject-5"><path d="M355.41,249.68l-2-6.13a20.74,20.74,0,1,1,7.18,1.95h0Z" style="fill:#fff"></path><path d="M355.41,249.68l.33-.25,1-.79,3.89-3.1.07-.06-.09,0h0l0,.1a20.75,20.75,0,0,0,10.07-1.63,19.14,19.14,0,0,0,2.85-1.51,22.79,22.79,0,0,0,2.75-2.1,20.83,20.83,0,0,0-8.35-35.57l-1.25-.32-1.26-.21-.63-.1-.63-.05-1.27-.09c-.42,0-.84,0-1.26,0a10.36,10.36,0,0,0-1.25.07,18.27,18.27,0,0,0-2.46.39,21.2,21.2,0,0,0-8.63,4.11,20.95,20.95,0,0,0-7.72,15.1,20.73,20.73,0,0,0,1,7.49,23.15,23.15,0,0,0,1.31,3.21,27.82,27.82,0,0,0,1.71,2.74,20.64,20.64,0,0,0,7.85,6.49l0,0c.67,2,1.18,3.52,1.54,4.57l.39,1.16c.09.26.14.38.14.38s-.05-.14-.13-.41l-.38-1.18-1.46-4.56v0h0a20.67,20.67,0,0,1-7.77-6.48,28.74,28.74,0,0,1-1.68-2.73,23.34,23.34,0,0,1-1.29-3.19,20.38,20.38,0,0,1-.93-7.42,20.86,20.86,0,0,1,2.1-8,20.61,20.61,0,0,1,5.56-7,20.94,20.94,0,0,1,8.54-4.06,19.65,19.65,0,0,1,2.42-.38,10.31,10.31,0,0,1,1.24-.07c.41,0,.83,0,1.25,0l1.25.09.62,0,.62.11,1.25.2,1.23.32a20.74,20.74,0,0,1,13.81,12.61,20.79,20.79,0,0,1-1,16.67,20.5,20.5,0,0,1-4.55,5.91,22.67,22.67,0,0,1-2.72,2.09,19.3,19.3,0,0,1-2.82,1.51,20.73,20.73,0,0,1-10,1.67l-.39,0,.36.14h0v-.09l-3.82,3.13-1,.81Z" style="fill:#263238"></path><path d="M371.1,222.65a5.3,5.3,0,0,0-1.41-2.89,5.11,5.11,0,0,0-2.7-1.6,4.14,4.14,0,0,0-4.53,2.19,4.12,4.12,0,0,0-1.25-1.31,4.19,4.19,0,0,0-3.25-.59,5.13,5.13,0,0,0-2.65,1.68,5.37,5.37,0,0,0-1.33,2.92,6.44,6.44,0,0,0,.86,4,9.26,9.26,0,0,0,3.22,2.93c2.08,1.21,4.83,2.74,4.83,2.74s2.28-1.76,4.34-3a9.18,9.18,0,0,0,3.12-3A6.42,6.42,0,0,0,371.1,222.65Z" style="fill:#407BFF"></path></g><g id="freepik--Character--inject-5"><path d="M409.74,308.55a87,87,0,0,1,8.1-19.75l4.06,1-8.09,18.73Z" style="fill:#263238"></path><path d="M425.24,279.65s2,.12,2.2,1.9a10.88,10.88,0,0,1,0,2.82,10.43,10.43,0,0,1,1.84,2.88,1.86,1.86,0,0,1-.37,2,21.76,21.76,0,0,1-3.37,2l.43-3.86s-.61-2.51-1.9-2.75-1.35-.74-1.35-.74L420,286.15l1,1.22a4.33,4.33,0,0,1-.74,2.58c-.79.92-3.61-.68-4.84-1.41a9.81,9.81,0,0,1-2.14-1.84l-2.76-.21-.25-6.84S422.78,279.16,425.24,279.65Z" style="fill:#ffbf9d"></path><path d="M422.72,283.88s5.45,1.22,2.46,8.42c-2.62,6.32-6.71,16.25-6.71,16.25h-6.42a64.12,64.12,0,0,0,6.08-12.34,54.61,54.61,0,0,0,2.53-9.25l-.69-.81Z" style="fill:#263238"></path><path d="M302.47,300.38s2.26-20.44,4-24,4.66-5.89,9-5,6.32,8,6.49,14.31-.88,9.3-.88,9.3l-3.16,1.14,1.5,3.1Z" style="fill:#263238"></path><path d="M412.15,286.72l-1.57-7.08L385,282.26l-2,8.38,1,6.59,3.43,1.49s13.14-7.26,17.73-9.29S411,286.34,412.15,286.72Z" style="fill:#ffbf9d"></path><path d="M337.81,286.18s5-2,8.37.36a1.54,1.54,0,0,1,1.34-.77c1.1,0,1.17.57,1.17.57s18.14.22,18.55-.06a23.52,23.52,0,0,1,6.58-3.1c2.84-.64,11.2-.92,11.2-.92s-1.62,13.19,2.44,16.46a30.53,30.53,0,0,1-9.26,2.72,107.7,107.7,0,0,1-11.29,0s-1.78,1.19-2.43.82a2.71,2.71,0,0,1-.9-.73L353,301.44l-10.31-2.19-5.52-10.49Z" style="fill:#455a64"></path><path d="M117.33,343.81c-.77,1,11.45,68.84,11.45,68.84L652.32,425.8V351.15l-97.6-24-397.58.4Z" style="fill:#407BFF"></path><g style="opacity:0.5"><path d="M117.33,343.81c-.77,1,11.45,68.84,11.45,68.84L652.32,425.8V351.15l-97.6-24-397.58.4Z"></path></g><path d="M365.89,298.53c-4.54-2.17-9.68-.48-9.68-.48l.6,3.28,15.52.74A47.16,47.16,0,0,0,365.89,298.53Z" style="fill:#ffbf9d"></path><path d="M161.25,291s10.56-3.35,31.31-6.13,22-1.73,22-1.73,5-17.25,10.15-17,6,5,6.58,11.91,1.94,14.22,1.94,14.22l11.48,4.15s-30.52,3.5-31,3.63S162.46,296,162.46,296l-1.93-5.09" style="fill:#263238"></path><path d="M681.22,378.88l-.54-16.83a32.54,32.54,0,0,0-16.2-27.17,209.55,209.55,0,0,0-38.32-17.22c-37.54-12.51-84.86-15-99.6-16.3a202.06,202.06,0,0,0-30.25,0c-17.36-19-92.71-59-92.71-59l-18.34,8.18,90.09,55.69-113.68-6.56S231.29,295.79,211,295.79s-50.45-4.91-50.45-4.91L93.7,304l-10.15-1.31L75.36,306l3,5.24-9.18,40s-5.57,3.84-6.38,5.69-.75,7.71-.75,7.71c-.42,1.28,2.14,2.78,2.14,2.78l.38,13.23L62,388.9c.21,5.13,11.33,18.82,15.61,19.68L134.63,420c4.1-19.46,3.85-29.41,12.28-47.43,9.34-20,30.8-33.53,52.85-33.84s43.69,12.43,54.51,31.64c9.82,17.43,10.53,39.51,2.52,57.82l258.87,4.7-.25-8c-2-18.52-.56-35.15,7.92-53.28,9.35-20,30.8-33.54,52.85-33.85s43.69,12.43,54.51,31.65c10.18,18.07,10.58,41.13,1.61,59.81,12.14.19,37.5-7,38.65-7.19h0s12.63-18.49,12.63-21.7S681.22,378.88,681.22,378.88Z" style="fill:#407BFF"></path><path d="M680.47,355.47s2.84.7,3.11,6.46,2.23,35.13,0,36.81S680.47,355.47,680.47,355.47Z" style="fill:#263238"></path><path d="M491.18,417.19s-.22.39-.71,1.17l-2.28,3.6,0,0h0l-51.8-1.82-42-1.33c-15.31-.44-31.79-.9-48.94-1.1-2.57,0-5.11,0-7.64,0s-5.06.08-7.56-.2a26,26,0,0,1-13.7-5.3A30.52,30.52,0,0,1,308,400.77c-2-4.24-3.17-8.67-4.65-12.83-.36-1-.84-2-1.16-3.11a31,31,0,0,1-.75-3.21c-.39-2.14-.68-4.26-.92-6.35-.49-4.18-.81-8.26-1.1-12.2-.55-7.88-.87-15.23-1.13-21.95s-.41-12.78-.5-18.12c0-.67,0-1.32,0-2a8.29,8.29,0,0,1,.11-1.92,21.42,21.42,0,0,1,1.31-3.35c1-2.07,2-3.91,2.85-5.56,1.8-3.3,3.28-5.82,4.28-7.52l1.53-2.6s-.1.24-.34.68l-1.1,2c-1,1.72-2.42,4.25-4.19,7.56-.88,1.66-1.86,3.51-2.81,5.58a23.19,23.19,0,0,0-1.27,3.31,5.16,5.16,0,0,0-.1.89c0,.32,0,.64,0,1,0,.64,0,1.3,0,2,.12,5.34.31,11.41.58,18.12s.63,14.06,1.19,21.93c.3,3.94.63,8,1.12,12.18.25,2.08.54,4.2.94,6.31a28.9,28.9,0,0,0,.73,3.16c.3,1,.79,2,1.17,3.08,1.49,4.2,2.69,8.59,4.65,12.8a30,30,0,0,0,8.31,11.23A25.51,25.51,0,0,0,330.23,417a74.69,74.69,0,0,0,7.51.2c2.53,0,5.08,0,7.64,0,17.16.2,33.64.67,49,1.13l42,1.41c25,.92,43.58,1.71,51.78,2.09l-.06,0c1.06-1.6,1.83-2.78,2.34-3.56Z" style="fill:#263238"></path><path d="M169.91,357.17a3,3,0,0,1-.62-.12l-1.72-.43-6.33-1.71c-5.33-1.48-12.68-3.56-20.75-6-2-.62-4-1.25-5.88-1.87a23.23,23.23,0,0,1-5.21-2.49,30.64,30.64,0,0,1-7.25-6.51,40.31,40.31,0,0,1-3.75-5.39c-.38-.68-.66-1.21-.83-1.58a2.13,2.13,0,0,1-.24-.58,3.15,3.15,0,0,1,.33.53c.21.35.51.87.92,1.52a43.48,43.48,0,0,0,3.86,5.26,31,31,0,0,0,7.21,6.34c3,2,7,3,11,4.27,8.06,2.48,15.4,4.61,20.7,6.18l6.28,1.87,1.7.53A3.07,3.07,0,0,1,169.91,357.17Z" style="fill:#263238"></path><g style="opacity:0.30000000000000004"><path d="M64.14,367.33s17.84,2.54,23.51,6.25,9.83,11,10.81,13.89,2.93,6.84,0,7.62-17.2-2.54-24.63-8.4-9.31-6.13-9.31-6.13Z"></path></g><g style="opacity:0.30000000000000004"><path d="M259.16,382.7l256.07,17c-1,7.3-.67,15.93.18,25.14l.25,8-258.87-4.7C262.64,411.75,264.45,396.35,259.16,382.7Z"></path></g><path d="M256.44,428.07s43-4.76,97.56-8.38,161.34,4.56,161.34,4.56l.32,8.59Z" style="fill:#407BFF"></path><circle cx="201.6" cy="399.69" r="55.87" transform="translate(-201.01 595.41) rotate(-89.16)" style="fill:#263238"></circle><path d="M145.74,398.74c0,.05,0,.1,0,.15a55.87,55.87,0,1,0,111.73,1.61v-.15Z" style="fill:#263238"></path><path d="M162.37,399.13a39.23,39.23,0,1,0,39.79-38.66A39.22,39.22,0,0,0,162.37,399.13Z" style="fill:#fafafa"></path><path d="M202.16,360.47a39.23,39.23,0,0,0-39.79,38.66l78.45,1.13A39.23,39.23,0,0,0,202.16,360.47Z" style="fill:#e0e0e0"></path><path d="M177.7,399.35a23.9,23.9,0,1,0,24.24-23.55A23.9,23.9,0,0,0,177.7,399.35Z" style="fill:#263238"></path><path d="M134,303.89l-.22,0-.67.07-2.57.24-9.46.84c-4,.39-8.75.82-14,1.6a25.73,25.73,0,0,0-3.93.84,25,25,0,0,0-3.82,1.74A46.54,46.54,0,0,0,92,314.33a29.21,29.21,0,0,0-5.9,6.53,51.55,51.55,0,0,0-3.52,7.49c-1.93,4.92-3.34,9.49-4.86,13.22a18.49,18.49,0,0,1-2.92,4.59,27.18,27.18,0,0,1-2.89,2.9c-.85.74-1.55,1.27-2,1.61l-.56.38c-.13.08-.2.11-.21.1s.24-.2.7-.56,1.14-.92,2-1.68A29.23,29.23,0,0,0,74.6,346a18.92,18.92,0,0,0,2.8-4.54c1.46-3.72,2.84-8.3,4.75-13.26a52.28,52.28,0,0,1,3.53-7.57,29.09,29.09,0,0,1,6-6.67,45.23,45.23,0,0,1,7.36-5.11,23.16,23.16,0,0,1,3.91-1.77,24.83,24.83,0,0,1,4-.84c5.26-.76,10-1.15,14-1.49s7.23-.55,9.47-.69l2.58-.13.67,0A.6.6,0,0,1,134,303.89Z" style="fill:#263238"></path><path d="M205.46,283.58a1.48,1.48,0,0,0,0,1,8.19,8.19,0,0,0,1.68,2.33c.42.47.91,1,1.38,1.61a5.33,5.33,0,0,1,.89,2.38,10.78,10.78,0,0,1-1,6.05,13.41,13.41,0,0,1-4.9,5.57,13.09,13.09,0,0,1-3.85,1.62c-1.43.28-2.88.41-4.37.56-6,.5-12.55.83-19.45,1.11-13.82.52-26.33.81-35.39.45-.57,0-1.13-.06-1.67-.12a9,9,0,0,1-1.57-.21l-.75-.16-.7-.24a7.69,7.69,0,0,1-4.44-3.95,8.94,8.94,0,0,1-.81-2.81,6.41,6.41,0,0,1,0-.76.76.76,0,0,1,0-.26.9.9,0,0,1,0,.26c0,.17.05.42.1.74a9.52,9.52,0,0,0,.89,2.74,7.41,7.41,0,0,0,3.11,3.21,7.85,7.85,0,0,0,1.25.54l.69.22.73.14a10.61,10.61,0,0,0,1.54.2c.53.05,1.08.09,1.64.09,9,.27,21.55-.08,35.35-.6,6.9-.28,13.48-.59,19.43-1.07,1.49-.14,2.95-.27,4.31-.52a12.51,12.51,0,0,0,3.73-1.55,13,13,0,0,0,4.8-5.36,10.66,10.66,0,0,0,1-5.84,5.17,5.17,0,0,0-.82-2.28c-.43-.62-.91-1.14-1.32-1.63a7.67,7.67,0,0,1-1.63-2.43A1.1,1.1,0,0,1,205.46,283.58Z" style="fill:#263238"></path><path d="M626.22,339.73s7.66,13.49,20.61,19.33,19.15,6.38,22.07,5.29,2.91-12.77,1.27-15.87-17-10.39-26.08-11.85S625.31,334.8,626.22,339.73Z" style="fill:#fff"></path><path d="M641,336.18a1.64,1.64,0,0,1-.36-.13l-1.06-.43c-.91-.41-2.3-.9-4.09-1.53-3.6-1.21-8.89-2.71-15.49-4.29s-14.52-3.27-23.35-4.95c-4.41-.83-9-1.67-13.87-2.45s-9.85-1.4-15-2.1c-10.28-1.39-20.07-2.73-29-4.05s-16.9-2.55-23.54-4.07a34.4,34.4,0,0,1-8.54-3.4,59.19,59.19,0,0,1-5.86-3.7c-1.54-1.12-2.69-2.05-3.46-2.69-.38-.32-.67-.58-.85-.75s-.29-.27-.28-.28a2.16,2.16,0,0,1,.31.24l.89.71c.78.62,1.95,1.52,3.51,2.6a58.31,58.31,0,0,0,5.88,3.61,34.17,34.17,0,0,0,8.48,3.3c6.62,1.47,14.64,2.64,23.53,3.95s18.68,2.63,29,4c5.13.71,10.16,1.33,15,2.11s9.47,1.65,13.88,2.49c8.83,1.71,16.74,3.42,23.34,5.06s11.89,3.19,15.48,4.46c1.78.66,3.17,1.18,4.07,1.62l1,.48A1.54,1.54,0,0,1,641,336.18Z" style="fill:#263238"></path><path d="M480.75,301.36c4.07.64,11-.25,14.77-.84-15.92-16.41-71.16-46.9-87.39-55.68h0s-9.48,4.16-9.28,5.56S475,300.46,480.75,301.36Z" style="fill:#fff"></path><polygon points="385.26 250.59 385.26 256.04 453.06 300.08 453.06 304.99 475.35 306.27 385.26 250.59" style="fill:#263238"></polygon><path d="M467,297.7a21.63,21.63,0,0,0-5.25-4.24c-3.95-2.55-8.07-5.17-12.73-5.77l-1.33.12a9.35,9.35,0,0,0-7.85,4.15,16.09,16.09,0,0,0-2.64,8.74,12.84,12.84,0,0,0,.62,5,6.54,6.54,0,0,0,3.2,3.72,10.44,10.44,0,0,0,4.31.67,113.45,113.45,0,0,0,13.92-.41,16.88,16.88,0,0,0,5.65-1.4,7.05,7.05,0,0,0,3.79-4.24A7.29,7.29,0,0,0,467,297.7Z" style="fill:#407BFF"></path><path d="M467,297.7a.61.61,0,0,1,.16.17,5.58,5.58,0,0,1,.41.52,8.18,8.18,0,0,1,1.14,2.31,6.07,6.07,0,0,1-.12,4,7.48,7.48,0,0,1-3.8,3.76,18.72,18.72,0,0,1-6.35,1.45c-2.33.24-4.83.35-7.45.38h-4a33.92,33.92,0,0,1-4.23-.17,6.62,6.62,0,0,1-2.13-.68,6.42,6.42,0,0,1-1.74-1.46,8.49,8.49,0,0,1-1.78-4.2,19.85,19.85,0,0,1,.14-5.87,15.43,15.43,0,0,1,1.88-5.31,9.76,9.76,0,0,1,8.6-5h0l1.33-.13h.05a23,23,0,0,1,8.07,2.94c2.22,1.26,4.06,2.51,5.58,3.52a20.8,20.8,0,0,1,3.34,2.63,8.28,8.28,0,0,1,.74.83,1.55,1.55,0,0,1,.22.31s-.34-.39-1.06-1.05a24.3,24.3,0,0,0-3.38-2.51c-1.54-1-3.4-2.19-5.62-3.41a22.84,22.84,0,0,0-8-2.82h.05l-1.33.13h0a9.31,9.31,0,0,0-8.14,4.85,14.78,14.78,0,0,0-1.8,5.13,19.14,19.14,0,0,0-.13,5.71,7.94,7.94,0,0,0,1.66,3.95,5.43,5.43,0,0,0,3.55,2,36,36,0,0,0,4.15.18l4,0c2.62,0,5.1-.11,7.41-.32a19,19,0,0,0,6.24-1.36,7.2,7.2,0,0,0,3.69-3.55,5.81,5.81,0,0,0,.19-3.87A10.64,10.64,0,0,0,467,297.7Z" style="fill:#263238"></path><path d="M683.76,400.91c0,.15-11.16.26-24.93.26s-24.92-.11-24.92-.26,11.15-.26,24.92-.26S683.76,400.77,683.76,400.91Z" style="fill:#263238"></path><path d="M491.18,417.19a1.73,1.73,0,0,1,0-.3c0-.22.08-.51.14-.87.11-.77.38-1.89.56-3.36.41-2.93.9-7.18,1.25-12.46.72-10.55,1-25.17.67-41.31-.19-8.07-.53-15.75-1.08-22.72-.26-3.49-.61-6.79-1.11-9.84a37.84,37.84,0,0,0-2.44-8.24,20.94,20.94,0,0,0-7.64-9.59,15.69,15.69,0,0,0-3-1.49c-.37-.12-.65-.21-.85-.26l-.29-.08a.76.76,0,0,1,.3,0c.2,0,.49.11.87.21a14.57,14.57,0,0,1,3.11,1.42,20.8,20.8,0,0,1,7.87,9.61,37.74,37.74,0,0,1,2.52,8.31c.53,3.08.89,6.39,1.17,9.88.57,7,.93,14.67,1.12,22.75.38,16.15,0,30.79-.83,41.35-.39,5.28-.94,9.54-1.41,12.46-.21,1.47-.51,2.58-.66,3.35-.08.35-.14.64-.19.86S491.19,417.2,491.18,417.19Z" style="fill:#263238"></path><circle cx="578.62" cy="399.69" r="55.87" transform="translate(170.64 972.5) rotate(-89.18)" style="fill:#263238"></circle><path d="M522.76,398.74c0,.05,0,.1,0,.15a55.88,55.88,0,0,0,111.74,1.61c0-.05,0-.1,0-.15Z" style="fill:#263238"></path><path d="M539.4,399.13a39.22,39.22,0,1,0,39.78-38.66A39.21,39.21,0,0,0,539.4,399.13Z" style="fill:#fafafa"></path><path d="M579.18,360.47a39.22,39.22,0,0,0-39.78,38.66l78.44,1.13A39.21,39.21,0,0,0,579.18,360.47Z" style="fill:#e0e0e0"></path><path d="M554.73,399.35A23.89,23.89,0,1,0,579,375.8,23.89,23.89,0,0,0,554.73,399.35Z" style="fill:#263238"></path><path d="M72.77,335.3s36.35,2,43.21-1,13.34-8.45,13.83-12.24-1.1-3.43-6.36-3.68-46.77-.1-46.77-.1Z" style="fill:#fff"></path><path d="M347.78,332.32s.24,0,.68-.15a3.4,3.4,0,0,0,1.68-1.1,4.4,4.4,0,0,0,.94-3.25,3.73,3.73,0,0,0-2.48-3.26,10.12,10.12,0,0,0-2.38-.11l-2.64,0-5.84,0-13.38,0a3.12,3.12,0,0,0-2.71,1.74,4.26,4.26,0,0,0-.22,3.49,3.34,3.34,0,0,0,2.25,2.15,6.42,6.42,0,0,0,1.54.09h1.56l10.93.07,7.37.11,2,.06a3.51,3.51,0,0,1,.7.07,2.28,2.28,0,0,1-.7.07l-2,.07-7.37.1-10.93.08h-1.56a6.69,6.69,0,0,1-1.65-.09A4,4,0,0,1,320.9,330a5.09,5.09,0,0,1,.26-4.13,3.7,3.7,0,0,1,3.2-2l13.38,0,5.84,0,2.64,0a9.88,9.88,0,0,1,2.49.16,4.17,4.17,0,0,1,2.7,3.69,4.66,4.66,0,0,1-1.11,3.48,3.29,3.29,0,0,1-1.82,1.05A1.7,1.7,0,0,1,347.78,332.32Z" style="fill:#263238"></path><path d="M317,276a56.75,56.75,0,0,1-4.68-8.68,20,20,0,0,1-1.55-9.64c.05-.5.75-3.9,1.24-4s.16,3,.41,3.27a16.92,16.92,0,0,1,4.19,9.13A44.81,44.81,0,0,1,317,276" style="fill:#263238"></path><path d="M322.25,246l.75-.14a14.74,14.74,0,0,1,17,10.6c1.89,6.9,3.88,14.55,4.54,18.32,1.37,7.8-6.18,10.47-6.18,10.47s2.31,8.05,2.31,8.05l-8.08,2.1-9.91-.47-9-31.07C311.46,255.93,314.24,248,322.25,246Z" style="fill:#ffbf9d"></path><path d="M338.32,285.27a19.08,19.08,0,0,1-10.7-1.08s3.75,5.64,11.38,3.48Z" style="fill:#ff9a6c"></path><path d="M339.2,264.16a1.13,1.13,0,0,1-.86,1.32,1.08,1.08,0,0,1-1.33-.78,1.13,1.13,0,0,1,.86-1.33A1.08,1.08,0,0,1,339.2,264.16Z" style="fill:#263238"></path><path d="M339,260.23c-.12.17-1.07-.29-2.27-.06s-2,1-2.12.87,0-.35.35-.7a3.14,3.14,0,0,1,1.66-.87,3,3,0,0,1,1.84.23C338.84,259.91,339,260.15,339,260.23Z" style="fill:#263238"></path><path d="M328.78,266.34a1.13,1.13,0,0,1-.86,1.32,1.07,1.07,0,0,1-1.33-.79,1.13,1.13,0,0,1,.86-1.32A1.07,1.07,0,0,1,328.78,266.34Z" style="fill:#263238"></path><path d="M327.29,262.72c-.12.17-1.08-.3-2.27-.07s-2,1-2.12.87,0-.34.35-.69a3.12,3.12,0,0,1,3.5-.64C327.17,262.4,327.34,262.64,327.29,262.72Z" style="fill:#263238"></path><path d="M333.31,271.1a7.69,7.69,0,0,1,1.87-.72c.3-.09.58-.2.59-.42a1.61,1.61,0,0,0-.37-.87c-.43-.68-.88-1.4-1.34-2.15a42.08,42.08,0,0,1-3.18-5.7,39.21,39.21,0,0,1,3.63,5.43l1.3,2.17a1.83,1.83,0,0,1,.39,1.17.76.76,0,0,1-.42.54,1.69,1.69,0,0,1-.51.17A8.16,8.16,0,0,1,333.31,271.1Z" style="fill:#263238"></path><path d="M327,258.9c-.11.34-1.33.24-2.75.47s-2.55.68-2.75.39c-.09-.14.09-.46.54-.8a4.73,4.73,0,0,1,2-.81,4.6,4.6,0,0,1,2.17.16C326.74,258.5,327,258.74,327,258.9Z" style="fill:#263238"></path><path d="M338.35,256.7c-.19.33-1.22.24-2.39.47s-2.12.62-2.41.38c-.12-.11,0-.42.35-.76a4.1,4.1,0,0,1,3.87-.69C338.24,256.3,338.43,256.55,338.35,256.7Z" style="fill:#263238"></path><path d="M315.4,269.52c-.14,0-5.64-.57-4.47,4.72s6.79,3.08,6.76,2.93S315.4,269.52,315.4,269.52Z" style="fill:#ffbf9d"></path><path d="M315.09,275.46s-.08.08-.22.19a1,1,0,0,1-.69.17,2.33,2.33,0,0,1-1.5-1.81,3.24,3.24,0,0,1,0-1.38,1.1,1.1,0,0,1,.54-.86.49.49,0,0,1,.6.13c.1.13.09.25.12.25s.1-.11,0-.32a.56.56,0,0,0-.28-.29.71.71,0,0,0-.54,0,1.33,1.33,0,0,0-.78,1,3.38,3.38,0,0,0,0,1.55,2.44,2.44,0,0,0,1.85,2,1,1,0,0,0,.81-.32C315.11,275.59,315.11,275.46,315.09,275.46Z" style="fill:#ff9a6c"></path><path d="M334.53,248.53c.74-.67-2.46-2.84-4.78-3.31-3.5-.71-8.55-.47-11.28,1-3.29,1.81-5.82,4.24-6.84,7.85a21.27,21.27,0,0,0,.12,11.14,6.37,6.37,0,0,0,1.48,3.05c1,1,2.59,1.41,2.9,3a2.33,2.33,0,0,0,.92,1.49c1.21.8,2.17-.44,2.48-1.53.69-2.34.25-4.83-.2-7.23a15.63,15.63,0,0,0-1.49-4.94c-.46-.82-1.07-1.55-1.48-2.4a2.7,2.7,0,0,1,.09-3.25,5.63,5.63,0,0,1,5.22-2.3c3.21.36,8.65.76,9.74-.55a8.15,8.15,0,0,0,1.81-3Z" style="fill:#263238"></path><path d="M329.76,272.69c.18-.05.46,1.16,1.7,1.77s2.5.18,2.55.35-.23.3-.77.44a3.09,3.09,0,0,1-2.11-.21,2.71,2.71,0,0,1-1.36-1.51C329.61,273,329.67,272.7,329.76,272.69Z" style="fill:#263238"></path><path d="M360.84,299.7a3.22,3.22,0,0,0,0-1.45c-.16-.71-9.69-4.64-12.92-6.55s-6.75-3.52-8.95-3.81a72.11,72.11,0,0,0-8.22,0s-1.32-.59-4.55-1.62a13.72,13.72,0,0,0-10.42,1.32c-3.08,1.76-6.31,6.46-6.17,8.37s1.16,2.27,1.16,2.27l9.81.85s14.9,7.81,18.42,7.67S360.84,299.7,360.84,299.7Z" style="fill:#455a64"></path><path d="M329.08,288.9c0,.08-.83.23-2.09.73a12.44,12.44,0,0,0-4.34,2.89,12.58,12.58,0,0,0-2.74,4.45c-.46,1.28-.57,2.13-.66,2.11a5.33,5.33,0,0,1,.31-2.22,11.22,11.22,0,0,1,7.31-7.58A5.16,5.16,0,0,1,329.08,288.9Z" style="fill:#263238"></path><path d="M314.18,296.29a5.73,5.73,0,0,1,1.08-1.74,16,16,0,0,1,3.62-3.38,16.26,16.26,0,0,1,4.47-2.13,5.68,5.68,0,0,1,2-.37,30.12,30.12,0,0,0-6.19,2.93A29.48,29.48,0,0,0,314.18,296.29Z" style="fill:#263238"></path><path d="M332.71,247.89a2.12,2.12,0,0,0-.21-1.92,3.84,3.84,0,0,0-1.52-1.3,17.53,17.53,0,0,0-9.81-1.83c-.38.11-.05.89.68,1.12a10.61,10.61,0,0,0-7,1.47,11,11,0,0,1-3,1.63.76.76,0,0,0-.52,1l.49,1.15a.79.79,0,0,1-.37,1,4,4,0,0,0-1.29,1.06.79.79,0,0,0,.22,1.18c.73.41,1.44,1,2.15.67.93-.38,1.66-1.71,2.55-2.19,2.32-1.26,5.13-1.07,7.75-.77s5.38.67,7.84-.29" style="fill:#263238"></path><path d="M310.21,253a3.94,3.94,0,0,0-1.49,2.68c0,.15,0,.34.13.41a1.68,1.68,0,0,0,.24.06.39.39,0,0,1,.18.38,1.27,1.27,0,0,1-.17.4,2,2,0,0,0-.23,1.81,1.75,1.75,0,0,0,1.78.85,5.16,5.16,0,0,0,1.93-.76l.59-6.63A4,4,0,0,0,310.21,253Z" style="fill:#263238"></path><path d="M310.91,254.72c-.09-.11.79-.81,2.12-1a3.16,3.16,0,0,1,2.35.28,22.51,22.51,0,0,1-2.26.24C311.9,254.41,311,254.85,310.91,254.72Z" style="fill:#455a64"></path><path d="M312.31,251.94a6,6,0,0,1,6.07-.58c0,.15-1.39-.19-3.06,0S312.38,252.08,312.31,251.94Z" style="fill:#455a64"></path><path d="M313,249.22a5.23,5.23,0,0,1,2.35-.79,16.13,16.13,0,0,1,6,.34c2.28.51,4.28,1.12,5.75,1.42s2.41.42,2.41.5a7.56,7.56,0,0,1-2.47-.14c-1.52-.21-3.56-.77-5.8-1.27a18.66,18.66,0,0,0-5.81-.49C313.85,248.94,313,249.3,313,249.22Z" style="fill:#455a64"></path><path d="M360.84,299.7s0-.13,0-.36a2.39,2.39,0,0,0-.07-1,4.28,4.28,0,0,0-1.28-.83c-.56-.3-1.2-.61-1.91-.95-2.84-1.39-6.91-3.07-11.2-5.3-2.17-1.07-4.23-2.13-6.15-2.89a11.82,11.82,0,0,0-2.87-.36c-.92,0-1.79,0-2.58,0-1.58,0-2.86.09-3.75.12a7,7,0,0,1-1.38,0A7.11,7.11,0,0,1,331,288c.88-.1,2.16-.21,3.75-.29.79,0,1.66-.06,2.6-.05a11.33,11.33,0,0,1,3,.34c2,.76,4,1.8,6.22,2.87,4.29,2.23,8.31,4,11.13,5.44q1.07.54,1.89,1l.75.47a1.67,1.67,0,0,1,.58.54,2,2,0,0,1,0,1.06A1.14,1.14,0,0,1,360.84,299.7Z" style="fill:#263238"></path><path d="M468,320.56l-.64,0-1.86.06-7.15.18c-6.21.15-15.2.3-26.31.41-22.22.23-52.93.17-86.82-.66s-64.59-2.29-86.77-3.61c-11.09-.65-20.06-1.24-26.26-1.7l-7.13-.53-1.86-.15a6.09,6.09,0,0,1-.63-.07l.64,0,1.85.1,7.14.43c6.21.39,15.18.93,26.27,1.53,22.19,1.23,52.86,2.62,86.76,3.46s64.59.94,86.8.81c11.11-.06,20.1-.15,26.32-.24l7.15-.08h1.86C467.81,320.54,468,320.56,468,320.56Z" style="fill:#fff"></path><path d="M495.52,300.52l-.06,0,0,0s0,0,0,0,0,0,0,0l.12.06.13.09s0,0,0,0,0,0,0,0l0,0-.08-.06-.37-.3-2.48-2-9-7.55c-7.58-6.39-19.29-13.6-32.3-21.32s-25-14.34-33.72-19.13l-10.3-5.66-2.8-1.55-.72-.41-.24-.15a.75.75,0,0,1,.27.1l.74.37,2.84,1.46c2.47,1.28,6,3.16,10.39,5.51,8.73,4.72,20.75,11.33,33.81,19s24.7,15,32.26,21.49l8.9,7.68,2.41,2.1.37.32.07.06,0,0s0,0,0,.06,0,0,0,0l-.13-.09-.09-.08s0,0,0,0Z" style="fill:#263238"></path><path d="M71.57,340.52a24.57,24.57,0,0,1,.63-3.35c.48-2.2,1.09-5,1.76-8s1.36-6,1.9-8a22.16,22.16,0,0,1,1-3.27,23.14,23.14,0,0,1-.62,3.35l-1.76,8c-.7,3.13-1.37,6-1.9,8A19.63,19.63,0,0,1,71.57,340.52Z" style="fill:#263238"></path></g></svg>
